<?xml version="1.0" encoding="UTF-8" standalone="no"?>
<!-- Created with Inkscape (http://www.inkscape.org/) -->

<svg
   version="1.1"
   id="svg18"
   width="736.90668"
   height="140.75999"
   viewBox="0 0 736.90668 140.75999"
   sodipodi:docname="logo_with_company_name.svg"
   inkscape:version="1.2.2 (b0a84865, 2022-12-01)"
   xmlns:inkscape="http://www.inkscape.org/namespaces/inkscape"
   xmlns:sodipodi="http://sodipodi.sourceforge.net/DTD/sodipodi-0.dtd"
   xmlns="http://www.w3.org/2000/svg"
   xmlns:svg="http://www.w3.org/2000/svg">
  <defs
     id="defs22" />
  <sodipodi:namedview
     id="namedview20"
     pagecolor="#505050"
     bordercolor="#eeeeee"
     borderopacity="1"
     inkscape:showpageshadow="0"
     inkscape:pageopacity="0"
     inkscape:pagecheckerboard="0"
     inkscape:deskcolor="#505050"
     showgrid="false"
     inkscape:zoom="1.7302055"
     inkscape:cx="369.0313"
     inkscape:cy="70.800837"
     inkscape:window-width="2359"
     inkscape:window-height="1205"
     inkscape:window-x="644"
     inkscape:window-y="72"
     inkscape:window-maximized="0"
     inkscape:current-layer="g26">
    <inkscape:page
       x="0"
       y="0"
       id="page24"
       width="736.90668"
       height="140.75999" />
  </sodipodi:namedview>
  <g
     id="g26"
     inkscape:groupmode="layer"
     inkscape:label="Page 1"
     transform="matrix(1.3333333,0,0,-1.3333333,0,140.76)">
    <path
       d="M 117.011,105.549 V 89.9098 l 50.794,-50.7907 12.383,3.9985 -63.177,62.4314"
       style="fill:#bdbcbc;fill-opacity:1;fill-rule:nonzero;stroke:none;stroke-width:0.1"
       id="path30" />
    <path
       d="M 63.166,105.549 V 89.9098 l 50.793,-50.7907 12.384,3.9985 -63.177,62.4314"
       style="fill:#4bb0e7;fill-opacity:1;fill-rule:nonzero;stroke:none;stroke-width:0.1"
       id="path32" />
    <path
       d="M 117.011,105.543 V 89.9039 l -15.616,-15.6141 -7.8286,7.8282 23.4446,23.425"
       style="fill:#5a5758;fill-opacity:1;fill-rule:nonzero;stroke:none;stroke-width:0.1"
       id="path34" />
    <path
       d="m 194.463,26.2602 c 0.39,-1.8594 1.043,-3.2461 1.957,-4.1602 0.914,-0.9141 2.254,-1.3711 4.019,-1.3711 0.922,0 1.75,0.1563 2.485,0.4688 0.734,0.3125 1.324,0.8164 1.769,1.5117 0.445,0.6953 0.668,1.5664 0.668,2.6133 0,0.9687 -0.18,1.8086 -0.539,2.5195 -0.359,0.7109 -0.937,1.3867 -1.734,2.0273 -0.797,0.6407 -1.907,1.3203 -3.328,2.0391 -1.219,0.6094 -2.321,1.2422 -3.305,1.8984 -0.985,0.6563 -1.824,1.3789 -2.52,2.168 -0.695,0.7891 -1.234,1.6523 -1.617,2.5898 -0.383,0.9375 -0.574,1.9922 -0.574,3.1641 0,1.9219 0.476,3.5547 1.43,4.8984 0.953,1.3438 2.332,2.3633 4.136,3.0586 1.805,0.6954 3.895,1.043 6.27,1.043 1.39,0 2.719,-0.0742 3.984,-0.2226 1.266,-0.1485 2.711,-0.4102 4.336,-0.7852 v -6.7969 h -3.211 c -0.297,1.2344 -0.676,2.2149 -1.136,2.9414 -0.461,0.7266 -1.036,1.2617 -1.723,1.6055 -0.688,0.3437 -1.555,0.5156 -2.602,0.5156 -0.89,0 -1.687,-0.1562 -2.39,-0.4687 -0.703,-0.3125 -1.258,-0.7774 -1.664,-1.3946 -0.407,-0.6171 -0.61,-1.3632 -0.61,-2.2382 0,-0.9063 0.176,-1.6914 0.528,-2.3555 0.351,-0.6641 0.941,-1.3125 1.769,-1.9453 0.828,-0.6328 2.031,-1.3555 3.609,-2.168 1.922,-1 3.434,-1.9805 4.536,-2.9414 1.101,-0.9609 1.914,-2.0078 2.437,-3.1406 0.524,-1.1328 0.785,-2.4492 0.785,-3.9492 0,-1.9219 -0.445,-3.5899 -1.336,-5.0039 -0.89,-1.4141 -2.187,-2.5 -3.89,-3.2579 -1.703,-0.7578 -3.672,-1.1367 -5.907,-1.1367 -1.593,0 -3.253,0.0899 -4.98,0.2696 -1.727,0.1796 -3.348,0.4414 -4.863,0.7851 v 7.2188 h 3.211"
       style="fill:#5a5758;fill-opacity:1;fill-rule:nonzero;stroke:none;stroke-width:0.1"
       id="path36" />
    <path
       d="m 231.963,21.1742 c -1.375,-1.1719 -2.625,-1.9961 -3.75,-2.4726 -1.125,-0.4766 -2.313,-0.7149 -3.563,-0.7149 -2.328,0 -4.066,0.6289 -5.215,1.8867 -1.148,1.2579 -1.722,3.1602 -1.722,5.7071 V 38.682 h -2.93 v 1.6172 c 0.953,0.1563 1.656,0.3906 2.109,0.7031 0.453,0.3125 0.805,0.7305 1.055,1.254 0.25,0.5234 0.449,1.207 0.598,2.0507 0.148,0.8438 0.261,1.8985 0.34,3.1641 h 5.601 v -5.8594 h 6.68 V 38.682 h -6.68 V 28.1117 c 0,-1.7656 0.082,-3.0703 0.246,-3.914 0.164,-0.8438 0.442,-1.4649 0.832,-1.8633 0.391,-0.3985 0.875,-0.5977 1.453,-0.5977 0.438,0 0.828,0.0391 1.172,0.1172 0.344,0.0781 0.707,0.2188 1.09,0.4219 0.383,0.2031 0.785,0.4922 1.207,0.8672 l 1.477,-1.9688"
       style="fill:#5a5758;fill-opacity:1;fill-rule:nonzero;stroke:none;stroke-width:0.1"
       id="path38" />
    <path
       d="m 240.049,30.3383 c 0,-3.3125 0.371,-5.793 1.113,-7.4414 0.742,-1.6485 1.863,-2.4727 3.363,-2.4727 0.828,0 1.52,0.211 2.074,0.6328 0.555,0.4219 1,1.0313 1.336,1.8282 0.336,0.7968 0.575,1.7539 0.715,2.8711 0.141,1.1171 0.211,2.371 0.211,3.7617 0,3.3593 -0.371,5.8711 -1.113,7.5351 -0.742,1.6641 -1.84,2.4961 -3.293,2.4961 -1.063,0 -1.914,-0.3359 -2.555,-1.0078 -0.64,-0.6719 -1.109,-1.6797 -1.406,-3.0234 -0.297,-1.3438 -0.445,-3.0703 -0.445,-5.1797 z m 4.125,-12.3516 c -2.297,0 -4.278,0.4024 -5.942,1.2071 -1.664,0.8046 -2.965,2.0937 -3.902,3.8671 -0.938,1.7735 -1.406,4.0274 -1.406,6.7618 0,2.0937 0.289,3.9062 0.867,5.4375 0.578,1.5312 1.383,2.7968 2.414,3.7968 1.031,1 2.262,1.7383 3.691,2.2149 1.43,0.4765 2.981,0.7148 4.653,0.7148 3.781,0 6.632,-0.9961 8.554,-2.9883 1.922,-1.9921 2.883,-4.9101 2.883,-8.7539 0,-2.7187 -0.476,-4.9961 -1.43,-6.832 -0.953,-1.8359 -2.312,-3.1992 -4.078,-4.0898 -1.765,-0.8907 -3.867,-1.336 -6.304,-1.336"
       style="fill:#5a5758;fill-opacity:1;fill-rule:nonzero;stroke:none;stroke-width:0.1"
       id="path40" />
    <path
       d="m 268.877,38.2602 0.304,-0.0704 c 1.141,1.3438 2.313,2.3125 3.516,2.9063 1.203,0.5937 2.508,0.8906 3.914,0.8906 0.953,0 1.953,-0.1015 3,-0.3047 v -6.4687 h -4.242 c -0.266,0.9062 -0.613,1.6015 -1.043,2.0859 -0.43,0.4844 -1.004,0.7266 -1.723,0.7266 -0.343,0 -0.722,-0.1055 -1.136,-0.3164 -0.414,-0.211 -0.797,-0.5078 -1.149,-0.8906 -0.351,-0.3829 -0.601,-0.7735 -0.75,-1.1719 -0.148,-0.3985 -0.246,-0.8008 -0.293,-1.2071 -0.047,-0.4062 -0.07,-1.0156 -0.07,-1.8281 v -7.4765 c 0,-1.4844 0.055,-2.5235 0.164,-3.1172 0.109,-0.5938 0.328,-1.0586 0.656,-1.3946 0.328,-0.3359 0.883,-0.5742 1.664,-0.7148 v -1.5469 h -11.554 v 1.5469 c 0.75,0.2031 1.269,0.4687 1.558,0.7969 0.289,0.3281 0.485,0.7734 0.586,1.3359 0.102,0.5625 0.152,1.5859 0.152,3.0703 v 9.6328 c 0,1.1563 -0.019,2.0118 -0.058,2.5664 -0.039,0.5547 -0.133,1 -0.281,1.336 -0.149,0.3359 -0.375,0.6094 -0.68,0.8203 -0.305,0.2109 -0.832,0.3945 -1.582,0.5508 v 1.5937 l 6.422,0.1875 h 2.953 l -0.328,-3.539"
       style="fill:#5a5758;fill-opacity:1;fill-rule:nonzero;stroke:none;stroke-width:0.1"
       id="path42" />
    <path
       d="m 288.799,34.0883 c 0,-1.9688 0.277,-3.4336 0.832,-4.3945 0.554,-0.961 1.425,-1.4415 2.613,-1.4415 1.078,0 1.902,0.4454 2.473,1.336 0.57,0.8906 0.855,2.25 0.855,4.0781 0,1.9219 -0.277,3.3867 -0.832,4.3945 -0.555,1.0079 -1.402,1.5118 -2.543,1.5118 -1.156,0 -2.012,-0.4493 -2.566,-1.3477 -0.555,-0.8984 -0.832,-2.2773 -0.832,-4.1367 z m -0.844,-17.2266 c -0.563,-0.4375 -0.988,-0.914 -1.277,-1.4297 -0.29,-0.5156 -0.434,-1.1093 -0.434,-1.7812 0,-1.125 0.488,-1.957 1.465,-2.4961 0.976,-0.5391 2.519,-0.8086 4.629,-0.8086 1.968,0 3.465,0.3281 4.488,0.9844 1.023,0.6562 1.535,1.5781 1.535,2.7656 0,0.5312 -0.094,0.9844 -0.281,1.3594 -0.188,0.375 -0.555,0.6875 -1.102,0.9375 -0.547,0.25 -1.32,0.375 -2.32,0.375 h -4.031 c -1.141,0 -2.032,0.0312 -2.672,0.0937 z m 16.664,21.6094 -4.008,0.4453 -0.094,-0.2578 c 0.438,-0.4375 0.801,-1.0352 1.09,-1.793 0.289,-0.7578 0.434,-1.6679 0.434,-2.7304 0,-2.7188 -0.824,-4.7813 -2.473,-6.1875 -1.648,-1.4063 -4.074,-2.1094 -7.277,-2.1094 -1.547,0 -2.813,0.1406 -3.797,0.4219 -0.781,-0.7032 -1.172,-1.461 -1.172,-2.2735 0,-0.4687 0.098,-0.8281 0.293,-1.0781 0.195,-0.25 0.527,-0.4414 0.996,-0.5742 0.469,-0.1328 1.133,-0.1992 1.992,-0.1992 h 5.813 c 2.609,0 4.562,-0.5079 5.859,-1.5235 1.297,-1.0156 1.945,-2.5937 1.945,-4.7344 0,-1.6718 -0.472,-3.1093 -1.417,-4.3125 -0.946,-1.2031 -2.301,-2.12105 -4.067,-2.75386 -1.766,-0.63281 -3.859,-0.94922 -6.281,-0.94922 -1.766,0 -3.367,0.07812 -4.805,0.23437 -1.437,0.15625 -2.664,0.44141 -3.68,0.85547 -1.015,0.41407 -1.8,0.98047 -2.355,1.69924 -0.555,0.7187 -0.832,1.6328 -0.832,2.7422 0,0.8906 0.281,1.7109 0.844,2.4609 0.562,0.75 1.351,1.3906 2.367,1.9219 -0.656,0.4687 -1.133,1.0078 -1.43,1.6172 -0.297,0.6093 -0.445,1.3593 -0.445,2.25 0,0.7343 0.152,1.4218 0.457,2.0625 0.305,0.6406 0.711,1.2226 1.219,1.7461 0.508,0.5234 1.168,1.0976 1.98,1.7226 -1.219,0.6875 -2.14,1.5899 -2.765,2.7071 -0.625,1.1171 -0.938,2.4257 -0.938,3.9257 0,1.4532 0.262,2.6993 0.785,3.7383 0.524,1.0391 1.242,1.8867 2.156,2.543 0.915,0.6562 1.993,1.1367 3.235,1.4414 1.242,0.3047 2.582,0.457 4.019,0.457 0.797,0 1.5,-0.039 2.11,-0.1172 0.609,-0.0781 1.203,-0.164 1.781,-0.2578 h 8.461 v -3.1406"
       style="fill:#5a5758;fill-opacity:1;fill-rule:nonzero;stroke:none;stroke-width:0.1"
       id="path44" />
    <path
       d="m 314.51,48.7836 c 0,-1.0156 0.234,-1.8047 0.703,-2.3672 0.468,-0.5625 1.164,-0.8437 2.086,-0.8437 0.859,0 1.519,0.2617 1.98,0.7851 0.461,0.5235 0.691,1.2617 0.691,2.2149 0,1.0468 -0.242,1.8515 -0.726,2.414 -0.484,0.5625 -1.149,0.8438 -1.992,0.8438 -0.907,0 -1.59,-0.2657 -2.051,-0.7969 -0.461,-0.5313 -0.691,-1.2813 -0.691,-2.25 z m 5.085,-19.3594 c -2.421,-0.0625 -4.214,-0.5156 -5.378,-1.3594 -1.164,-0.8437 -1.747,-2.0781 -1.747,-3.7031 0,-0.9687 0.266,-1.707 0.797,-2.2148 0.532,-0.5078 1.266,-0.7617 2.203,-0.7617 0.719,0 1.399,0.1914 2.04,0.5742 0.64,0.3828 1.148,0.8945 1.523,1.5351 0.375,0.6407 0.562,1.3203 0.562,2.0391 z m -2.484,14.3438 c -1.766,0 -3.109,0.414 -4.031,1.2422 -0.922,0.8281 -1.383,2.0312 -1.383,3.6093 0,1.0938 0.246,2.0196 0.738,2.7774 0.493,0.7578 1.172,1.3203 2.039,1.6875 0.868,0.3672 1.848,0.5508 2.942,0.5508 1.765,0 3.101,-0.4102 4.008,-1.2305 0.906,-0.8203 1.359,-2.0117 1.359,-3.5742 0,-1.6407 -0.496,-2.8946 -1.488,-3.7617 -0.992,-0.8672 -2.387,-1.3008 -4.184,-1.3008 z m 3.258,-22.336 -0.352,0.1172 c -1.281,-1.25 -2.527,-2.1562 -3.738,-2.7187 -1.211,-0.5625 -2.496,-0.8438 -3.855,-0.8438 -1.344,0 -2.512,0.2461 -3.504,0.7383 -0.992,0.4922 -1.742,1.1758 -2.25,2.0508 -0.508,0.875 -0.762,1.8828 -0.762,3.0234 0,2.2969 1.129,4.1055 3.387,5.4258 2.258,1.3203 5.683,2.1523 10.277,2.4961 v 2.2266 c 0,1.4531 -0.164,2.5742 -0.492,3.3632 -0.328,0.7891 -0.75,1.3438 -1.266,1.6641 -0.515,0.3203 -1.133,0.4805 -1.851,0.4805 -0.719,0 -1.34,-0.125 -1.864,-0.375 -0.523,-0.25 -0.996,-0.7227 -1.418,-1.418 -0.421,-0.6953 -0.734,-1.6602 -0.937,-2.8945 h -4.43 v 4.2656 c 1.438,0.6406 2.633,1.1328 3.586,1.4766 0.953,0.3437 1.895,0.6289 2.824,0.8554 0.93,0.2266 1.762,0.3867 2.496,0.4805 0.735,0.0937 1.469,0.1406 2.204,0.1406 1.89,0 3.402,-0.25 4.535,-0.75 1.133,-0.5 1.98,-1.3125 2.543,-2.4375 0.562,-1.125 0.843,-2.6797 0.843,-4.664 v -9.1407 c 0,-1.0312 0.024,-1.8281 0.071,-2.3906 0.047,-0.5625 0.121,-0.9805 0.222,-1.2539 0.102,-0.2734 0.231,-0.4922 0.387,-0.6562 0.156,-0.1641 0.348,-0.2969 0.574,-0.3985 0.227,-0.1015 0.653,-0.2305 1.278,-0.3867 v -1.5469 h -8.719 l 0.211,3.0703"
       style="fill:#5a5758;fill-opacity:1;fill-rule:nonzero;stroke:none;stroke-width:0.1"
       id="path46" />
    <path
       d="m 340.947,38.2602 0.305,-0.0704 c 1.14,1.3438 2.312,2.3125 3.515,2.9063 1.203,0.5937 2.508,0.8906 3.914,0.8906 0.954,0 1.954,-0.1015 3,-0.3047 v -6.4687 h -4.242 c -0.265,0.9062 -0.613,1.6015 -1.043,2.0859 -0.429,0.4844 -1.004,0.7266 -1.722,0.7266 -0.344,0 -0.723,-0.1055 -1.137,-0.3164 -0.414,-0.211 -0.797,-0.5078 -1.149,-0.8906 -0.351,-0.3829 -0.601,-0.7735 -0.75,-1.1719 -0.148,-0.3985 -0.246,-0.8008 -0.293,-1.2071 -0.046,-0.4062 -0.07,-1.0156 -0.07,-1.8281 v -7.4765 c 0,-1.4844 0.055,-2.5235 0.164,-3.1172 0.11,-0.5938 0.328,-1.0586 0.656,-1.3946 0.329,-0.3359 0.883,-0.5742 1.665,-0.7148 v -1.5469 h -11.555 v 1.5469 c 0.75,0.2031 1.269,0.4687 1.558,0.7969 0.29,0.3281 0.485,0.7734 0.586,1.3359 0.102,0.5625 0.153,1.5859 0.153,3.0703 v 9.6328 c 0,1.1563 -0.02,2.0118 -0.059,2.5664 -0.039,0.5547 -0.133,1 -0.281,1.336 -0.149,0.3359 -0.375,0.6094 -0.68,0.8203 -0.304,0.2109 -0.832,0.3945 -1.582,0.5508 v 1.5937 l 6.422,0.1875 h 2.953 l -0.328,-3.539"
       style="fill:#5a5758;fill-opacity:1;fill-rule:nonzero;stroke:none;stroke-width:0.1"
       id="path48" />
    <path
       d="m 369.517,33.9242 c 0,1.9063 -0.32,3.3203 -0.961,4.2422 -0.64,0.9219 -1.625,1.3828 -2.953,1.3828 -0.968,0 -1.8,-0.3476 -2.496,-1.0429 -0.695,-0.6954 -1.219,-1.6993 -1.57,-3.0118 -0.352,-1.3125 -0.527,-2.8672 -0.527,-4.664 0,-3.0782 0.335,-5.375 1.007,-6.8907 0.672,-1.5156 1.719,-2.2734 3.141,-2.2734 0.672,0 1.34,0.168 2.004,0.5039 0.664,0.336 1.223,0.8516 1.676,1.5469 0.453,0.6953 0.679,1.4961 0.679,2.4023 z m 6.774,-8.7187 c 0,-1.1875 0.019,-2.0547 0.058,-2.6016 0.039,-0.5469 0.129,-0.9844 0.27,-1.3125 0.141,-0.3281 0.367,-0.5976 0.68,-0.8086 0.312,-0.2109 0.836,-0.3945 1.57,-0.5508 v -1.5703 l -6.375,-0.2109 h -2.836 l 0.211,3.375 -0.352,0.0234 c -1.125,-1.1406 -2.308,-2.0195 -3.55,-2.6367 -1.243,-0.6172 -2.434,-0.9258 -3.575,-0.9258 -2.843,0 -4.972,0.9766 -6.386,2.9297 -1.414,1.9531 -2.121,4.8906 -2.121,8.8125 0,2.6563 0.429,4.8945 1.289,6.7149 0.859,1.8203 2.136,3.1992 3.832,4.1367 1.695,0.9375 3.738,1.4062 6.129,1.4062 0.687,0 1.363,-0.0429 2.027,-0.1289 0.664,-0.0859 1.449,-0.2539 2.355,-0.5039 v 2.1328 c 0,1.6719 -0.023,2.8555 -0.07,3.5508 -0.047,0.6953 -0.144,1.2266 -0.293,1.5938 -0.148,0.3671 -0.371,0.6523 -0.668,0.8554 -0.297,0.2031 -0.836,0.3828 -1.617,0.5391 v 1.5703 l 6.492,0.3281 h 2.93 V 25.2055"
       style="fill:#5a5758;fill-opacity:1;fill-rule:nonzero;stroke:none;stroke-width:0.1"
       id="path50" />
    <path
       d="m 385.338,24.6898 c 0.375,-1.4218 0.968,-2.4882 1.781,-3.1992 0.812,-0.7109 1.898,-1.0664 3.258,-1.0664 1.172,0 2.058,0.2656 2.66,0.7969 0.601,0.5312 0.902,1.3047 0.902,2.3203 0,0.6406 -0.136,1.1875 -0.41,1.6406 -0.273,0.4532 -0.726,0.8868 -1.359,1.3008 -0.633,0.4141 -1.715,0.957 -3.246,1.6289 -0.86,0.375 -1.668,0.7891 -2.426,1.2422 -0.758,0.4531 -1.418,0.9649 -1.981,1.5352 -0.562,0.5703 -1.007,1.207 -1.336,1.9101 -0.328,0.7031 -0.492,1.4844 -0.492,2.3438 0,1.4062 0.406,2.625 1.219,3.6562 0.812,1.0313 1.973,1.8203 3.48,2.3672 1.508,0.5469 3.231,0.8203 5.168,0.8203 1.141,0 2.258,-0.0469 3.352,-0.1406 1.094,-0.0938 2.508,-0.2969 4.242,-0.6094 v -5.4609 h -3.094 c -0.359,1 -0.753,1.7734 -1.183,2.3203 -0.43,0.5469 -0.903,0.9258 -1.418,1.1367 -0.516,0.211 -1.133,0.3164 -1.852,0.3164 -1.031,0 -1.851,-0.2344 -2.461,-0.7031 -0.609,-0.4688 -0.914,-1.125 -0.914,-1.9688 0,-0.5937 0.11,-1.1015 0.328,-1.5234 0.219,-0.4219 0.61,-0.832 1.172,-1.2305 0.563,-0.3984 1.649,-0.9336 3.258,-1.6054 1.469,-0.6094 2.664,-1.2461 3.586,-1.9102 0.922,-0.664 1.625,-1.4297 2.109,-2.2969 0.485,-0.8671 0.727,-1.8789 0.727,-3.0351 0,-1.2656 -0.234,-2.3555 -0.703,-3.2695 -0.469,-0.9141 -1.125,-1.668 -1.969,-2.2618 -0.844,-0.5937 -1.855,-1.0351 -3.035,-1.3242 -1.18,-0.289 -2.481,-0.4336 -3.902,-0.4336 -2.579,0 -5.446,0.3672 -8.602,1.1016 v 5.6015 h 3.141"
       style="fill:#5a5758;fill-opacity:1;fill-rule:nonzero;stroke:none;stroke-width:0.1"
       id="path52" />
    <path
       d="m 413.205,38.518 c 1.422,1.2656 2.691,2.1601 3.808,2.6836 1.118,0.5234 2.262,0.7851 3.434,0.7851 1.719,0 3.047,-0.3164 3.984,-0.9492 0.938,-0.6328 1.622,-1.543 2.051,-2.7305 0.43,-1.1875 0.645,-2.7265 0.645,-4.6172 v -8.5546 c 0,-0.6875 0.011,-1.3321 0.035,-1.9336 0.023,-0.6016 0.082,-1.0821 0.176,-1.4414 0.093,-0.3594 0.222,-0.6524 0.386,-0.8789 0.164,-0.2266 0.395,-0.418 0.692,-0.5743 0.297,-0.1562 0.656,-0.289 1.078,-0.3984 v -1.5469 h -11.367 v 1.5469 c 0.734,0.1719 1.238,0.4219 1.511,0.75 0.274,0.3281 0.461,0.7812 0.563,1.3594 0.102,0.5781 0.152,1.6093 0.152,3.0937 v 6.1172 c 0,1.5625 -0.05,2.7774 -0.152,3.6445 -0.102,0.8672 -0.273,1.5391 -0.516,2.0157 -0.242,0.4765 -0.554,0.832 -0.937,1.0664 -0.383,0.2343 -0.887,0.3515 -1.512,0.3515 -0.594,0 -1.215,-0.1836 -1.863,-0.5507 -0.649,-0.3672 -1.188,-0.8672 -1.617,-1.5 -0.43,-0.6329 -0.645,-1.3086 -0.645,-2.0274 v -9.0937 c 0,-0.875 0.012,-1.5508 0.035,-2.0274 0.024,-0.4765 0.059,-0.8437 0.106,-1.1015 0.047,-0.2579 0.113,-0.4883 0.199,-0.6915 0.086,-0.2031 0.199,-0.3906 0.34,-0.5625 0.14,-0.1718 0.344,-0.3281 0.609,-0.4687 0.266,-0.1406 0.617,-0.2656 1.055,-0.375 V 18.3617 H 403.97 v 1.5469 c 0.469,0.1094 0.836,0.2383 1.102,0.3867 0.266,0.1485 0.473,0.3203 0.621,0.5156 0.149,0.1954 0.277,0.4454 0.387,0.75 0.109,0.3047 0.18,0.7266 0.211,1.2657 0.031,0.539 0.047,1.3086 0.047,2.3086 v 18.2812 c 0,1.3438 -0.012,2.332 -0.035,2.9649 -0.024,0.6328 -0.075,1.164 -0.153,1.5937 -0.078,0.4297 -0.195,0.7734 -0.351,1.0313 -0.157,0.2578 -0.383,0.4648 -0.68,0.621 -0.297,0.1563 -0.774,0.2969 -1.43,0.4219 v 1.5469 l 6.492,0.3281 h 2.93 V 38.5414 l 0.094,-0.0234"
       style="fill:#5a5758;fill-opacity:1;fill-rule:nonzero;stroke:none;stroke-width:0.1"
       id="path54" />
    <path
       d="m 432.47,41.6117 h 9.118 V 28.6039 c 0,-1.5 0.047,-2.6719 0.14,-3.5156 0.094,-0.8438 0.274,-1.5117 0.539,-2.0039 0.266,-0.4922 0.59,-0.8516 0.973,-1.0781 0.383,-0.2266 0.871,-0.3399 1.465,-0.3399 0.578,0 1.187,0.1797 1.828,0.5391 0.641,0.3593 1.184,0.8633 1.629,1.5117 0.445,0.6484 0.668,1.3398 0.668,2.0742 v 9.0469 c 0,1.1406 -0.024,1.9883 -0.07,2.543 -0.047,0.5546 -0.137,0.9882 -0.27,1.3007 -0.133,0.3125 -0.34,0.5743 -0.621,0.7852 -0.281,0.2109 -0.742,0.4101 -1.383,0.5976 v 1.5469 h 9.141 V 25.2055 c 0,-1.1875 0.019,-2.0547 0.058,-2.6016 0.039,-0.5469 0.129,-0.9844 0.27,-1.3125 0.14,-0.3281 0.367,-0.5976 0.68,-0.8086 0.312,-0.2109 0.835,-0.3945 1.57,-0.5508 v -1.5703 l -6.375,-0.2109 h -2.836 l 0.211,3.375 -0.281,0.0703 c -1.454,-1.3438 -2.75,-2.2813 -3.891,-2.8125 -1.141,-0.5313 -2.289,-0.7969 -3.445,-0.7969 -1.657,0 -2.981,0.3086 -3.973,0.9258 -0.992,0.6172 -1.707,1.5234 -2.145,2.7188 -0.437,1.1953 -0.656,2.7382 -0.656,4.6289 v 8.5781 c 0,0.875 -0.011,1.5469 -0.035,2.0156 -0.023,0.4688 -0.059,0.832 -0.105,1.0899 -0.047,0.2578 -0.114,0.4921 -0.2,0.7031 -0.086,0.2109 -0.203,0.4023 -0.351,0.5742 -0.149,0.1719 -0.352,0.3281 -0.61,0.4687 -0.257,0.1407 -0.605,0.2657 -1.043,0.375 v 1.5469"
       style="fill:#5a5758;fill-opacity:1;fill-rule:nonzero;stroke:none;stroke-width:0.1"
       id="path56" />
    <path
       d="m 464.674,24.6898 c 0.375,-1.4218 0.968,-2.4882 1.781,-3.1992 0.812,-0.7109 1.898,-1.0664 3.258,-1.0664 1.172,0 2.058,0.2656 2.66,0.7969 0.601,0.5312 0.902,1.3047 0.902,2.3203 0,0.6406 -0.137,1.1875 -0.41,1.6406 -0.273,0.4532 -0.727,0.8868 -1.359,1.3008 -0.633,0.4141 -1.715,0.957 -3.246,1.6289 -0.86,0.375 -1.668,0.7891 -2.426,1.2422 -0.758,0.4531 -1.418,0.9649 -1.981,1.5352 -0.562,0.5703 -1.008,1.207 -1.336,1.9101 -0.328,0.7031 -0.492,1.4844 -0.492,2.3438 0,1.4062 0.406,2.625 1.219,3.6562 0.812,1.0313 1.973,1.8203 3.48,2.3672 1.508,0.5469 3.231,0.8203 5.168,0.8203 1.141,0 2.258,-0.0469 3.352,-0.1406 1.094,-0.0938 2.508,-0.2969 4.242,-0.6094 v -5.4609 h -3.094 c -0.359,1 -0.754,1.7734 -1.183,2.3203 -0.43,0.5469 -0.903,0.9258 -1.418,1.1367 -0.516,0.211 -1.133,0.3164 -1.852,0.3164 -1.031,0 -1.851,-0.2344 -2.461,-0.7031 -0.609,-0.4688 -0.914,-1.125 -0.914,-1.9688 0,-0.5937 0.11,-1.1015 0.328,-1.5234 0.219,-0.4219 0.61,-0.832 1.172,-1.2305 0.563,-0.3984 1.649,-0.9336 3.258,-1.6054 1.469,-0.6094 2.664,-1.2461 3.586,-1.9102 0.922,-0.664 1.625,-1.4297 2.109,-2.2969 0.485,-0.8671 0.727,-1.8789 0.727,-3.0351 0,-1.2656 -0.234,-2.3555 -0.703,-3.2695 -0.469,-0.9141 -1.125,-1.668 -1.969,-2.2618 -0.844,-0.5937 -1.855,-1.0351 -3.035,-1.3242 -1.18,-0.289 -2.481,-0.4336 -3.902,-0.4336 -2.579,0 -5.446,0.3672 -8.602,1.1016 v 5.6015 h 3.141"
       style="fill:#5a5758;fill-opacity:1;fill-rule:nonzero;stroke:none;stroke-width:0.1"
       id="path58" />
    <path
       d="m 502.033,31.018 h 8.437 l -3.75,13.1953 z m 9.117,-2.7422 h -10.008 l -0.773,-2.2266 c -0.219,-0.625 -0.399,-1.2304 -0.539,-1.8164 -0.141,-0.5859 -0.211,-1.207 -0.211,-1.8633 0,-1.5312 0.812,-2.3515 2.437,-2.4609 v -1.5469 h -10.007 v 1.5469 c 0.578,0.0625 1.086,0.2656 1.523,0.6094 0.438,0.3437 0.836,0.8125 1.195,1.4062 0.36,0.5938 0.743,1.4453 1.149,2.5547 l 9.773,26.0391 h 6.258 l 7.734,-26.25 c 0.344,-1.1719 0.633,-2.0039 0.868,-2.4961 0.234,-0.4922 0.539,-0.8906 0.914,-1.1953 0.375,-0.3047 0.898,-0.5274 1.57,-0.668 v -1.5469 h -12.938 v 1.5469 c 0.813,0.0937 1.415,0.3203 1.805,0.6797 0.391,0.3594 0.586,0.8672 0.586,1.5234 0,0.4844 -0.055,1.0235 -0.164,1.6172 -0.109,0.5938 -0.289,1.3438 -0.539,2.25 l -0.633,2.2969"
       style="fill:#5a5758;fill-opacity:1;fill-rule:nonzero;stroke:none;stroke-width:0.1"
       id="path60" />
    <path
       d="m 535.549,21.1742 c 0.921,-0.0469 1.984,-0.0703 3.187,-0.0703 1.484,0 2.707,0.1836 3.668,0.5508 0.961,0.3672 1.707,1.0078 2.238,1.9219 0.532,0.914 0.797,2.1679 0.797,3.7617 0,1.125 -0.14,2.0898 -0.422,2.8945 -0.281,0.8047 -0.703,1.4531 -1.265,1.9453 -0.563,0.4922 -1.235,0.8516 -2.016,1.0782 -0.781,0.2265 -1.758,0.3398 -2.93,0.3398 h -3.257 z m 3.117,15.1641 c 1.562,0 2.789,0.2265 3.679,0.6797 0.891,0.4531 1.567,1.0976 2.028,1.9336 0.461,0.8359 0.691,1.9882 0.691,3.457 0,1.2969 -0.25,2.3242 -0.75,3.082 -0.5,0.7578 -1.211,1.3008 -2.133,1.6289 -0.921,0.3282 -2.07,0.4922 -3.445,0.4922 -1.094,0 -2.156,-0.039 -3.187,-0.1172 V 36.3383 Z m 7.289,-1.2188 c 2.187,-0.6875 3.855,-1.6836 5.004,-2.9882 1.148,-1.3047 1.722,-2.8711 1.722,-4.6993 0,-1.5625 -0.261,-2.9218 -0.785,-4.0781 -0.523,-1.1562 -1.32,-2.1055 -2.39,-2.8476 -1.071,-0.7422 -2.329,-1.2852 -3.774,-1.629 -1.445,-0.3437 -3.285,-0.5156 -5.519,-0.5156 h -14.438 v 1.5469 c 0.578,0.1562 1.035,0.3242 1.371,0.5039 0.336,0.1797 0.586,0.4297 0.75,0.75 0.164,0.3203 0.27,0.7266 0.317,1.2188 0.047,0.4921 0.07,1.1132 0.07,1.8632 v 20.2032 c 0,0.7343 -0.02,1.3515 -0.059,1.8515 -0.039,0.5 -0.14,0.9063 -0.304,1.2188 -0.164,0.3125 -0.414,0.5664 -0.75,0.7617 -0.336,0.1953 -0.801,0.3711 -1.395,0.5273 v 1.5469 h 15.352 c 1.75,0 3.179,-0.0859 4.289,-0.2578 1.469,-0.2344 2.742,-0.6406 3.82,-1.2188 0.969,-0.5156 1.727,-1.25 2.274,-2.2031 0.546,-0.9531 0.82,-2.0859 0.82,-3.3984 0,-3.5313 -2.125,-6.1797 -6.375,-7.9453 v -0.211"
       style="fill:#5a5758;fill-opacity:1;fill-rule:nonzero;stroke:none;stroke-width:0.1"
       id="path62" />
    <path
       d="M 61.9066,37.3566 H 50.7438 V 48.5195 H 61.9066 V 37.3566"
       style="fill:#5a5758;fill-opacity:1;fill-rule:nonzero;stroke:none;stroke-width:0.1"
       id="path64" />
    <path
       d="M 75.2949,37.3566 H 64.1316 V 48.5195 H 75.2949 V 37.3566"
       style="fill:#5a5758;fill-opacity:1;fill-rule:nonzero;stroke:none;stroke-width:0.1"
       id="path66" />
    <path
       d="m 50.623,50.8762 h 11.4043 v 11.2047 c 0,0 -11.4043,-0.3957 -11.4043,-11.2047"
       style="fill:#5a5758;fill-opacity:1;fill-rule:nonzero;stroke:none;stroke-width:0.1"
       id="path68" />
    <path
       d="M 75.4148,50.8762 H 64.0109 v 11.2047 c 0,0 11.4039,-0.3957 11.4039,-11.2047"
       style="fill:#5a5758;fill-opacity:1;fill-rule:nonzero;stroke:none;stroke-width:0.1"
       id="path70" />
    <path
       d="m 26.3918,49.65 v 0.0121"
       style="fill:#231f20;fill-opacity:1;fill-rule:nonzero;stroke:none;stroke-width:0.1"
       id="path72" />
    <path
       d="M 15.3246,38.4051 V 0 H 110.789 V 38.4051 L 99.7219,49.5305 V 11.0672 H 26.3918 v 38.5824"
       style="fill:#367bbe;fill-opacity:1;fill-rule:nonzero;stroke:none;stroke-width:0.1"
       id="path74" />
    <path
       d="M 63.1543,105.567 55.3281,97.7422 55.3406,97.7297 28.2152,70.6043 v 7.7547 h -7.3531 v -0.0574 l -1.807,-3.8977 -1.8332,-3.9539 0.3804,0.1059 3.2598,0.9078 V 57.0031 h -3.2598 c 0,4e-4 0,0.4184 0,0.4188 0,0.0074 0,2.5402 0,2.5597 V 59.991 L 9.08359,51.4723 4.86289,47.5926 0,43.1246 l 6.19219,-2.0012 6.19181,-2 -4e-4,0.0028 0.0019,-0.0024 50.7805,50.7805"
       style="fill:#367bbd;fill-opacity:1;fill-rule:nonzero;stroke:none;stroke-width:0.1"
       id="path76" />
    <path
       d="m 164.859,38.602 -5.959,6.0046 -5.108,5.1481 v -38.5 H 117.165 V 0.187891 h 36.627 1.329 9.738 V 38.5926 h -0.029 l 0.029,0.0094"
       style="fill:#5a5758;fill-opacity:1;fill-rule:nonzero;stroke:none;stroke-width:0.1"
       id="path78" />
    <path
       d="M 15.3246,38.5926 26.3941,49.6621"
       style="fill:#231f20;fill-opacity:1;fill-rule:nonzero;stroke:none;stroke-width:0.1"
       id="path80" />
  </g>
</svg>
