<?xml version="1.0" encoding="UTF-8" standalone="no"?>
<!-- Created with Inkscape (http://www.inkscape.org/) -->

<svg
   width="63.566727mm"
   height="37.241692mm"
   viewBox="0 0 63.566727 37.241692"
   version="1.1"
   id="svg508"
   inkscape:version="1.2.2 (b0a84865, 2022-12-01)"
   sodipodi:docname="favicon.svg"
   xmlns:inkscape="http://www.inkscape.org/namespaces/inkscape"
   xmlns:sodipodi="http://sodipodi.sourceforge.net/DTD/sodipodi-0.dtd"
   xmlns="http://www.w3.org/2000/svg"
   xmlns:svg="http://www.w3.org/2000/svg">
  <sodipodi:namedview
     id="namedview510"
     pagecolor="#505050"
     bordercolor="#eeeeee"
     borderopacity="1"
     inkscape:showpageshadow="0"
     inkscape:pageopacity="0"
     inkscape:pagecheckerboard="0"
     inkscape:deskcolor="#505050"
     inkscape:document-units="mm"
     showgrid="false"
     inkscape:zoom="0.914906"
     inkscape:cx="120.23093"
     inkscape:cy="71.592054"
     inkscape:window-width="1390"
     inkscape:window-height="1205"
     inkscape:window-x="0"
     inkscape:window-y="25"
     inkscape:window-maximized="0"
     inkscape:current-layer="layer1" />
  <defs
     id="defs505" />
  <g
     inkscape:label="Lager 1"
     inkscape:groupmode="layer"
     id="layer1"
     transform="translate(-77.530942,-111.22628)">
    <path
       d="m 118.81023,111.23263 v 5.51716 l 17.91899,17.91783 4.36845,-1.41058 -22.28744,-22.02441"
       style="fill:#bdbcbc;fill-opacity:1;fill-rule:nonzero;stroke:none;stroke-width:0.0352778"
       id="path30" />
    <path
       d="m 99.814912,111.23263 v 5.51716 l 17.918638,17.91783 4.3688,-1.41058 -22.287438,-22.02441"
       style="fill:#4bb0e7;fill-opacity:1;fill-rule:nonzero;stroke:none;stroke-width:0.0352778"
       id="path32" />
    <path
       d="m 118.81023,111.23474 v 5.51713 l -5.50898,5.50831 -2.76175,-2.76162 8.27073,-8.26382"
       style="fill:#5a5758;fill-opacity:1;fill-rule:nonzero;stroke:none;stroke-width:0.0352778"
       id="path34" />
    <path
       d="m 99.370622,135.28939 h -3.93799 v -3.93802 h 3.93799 v 3.93802"
       style="fill:#5a5758;fill-opacity:1;fill-rule:nonzero;stroke:none;stroke-width:0.0352778"
       id="path64" />
    <path
       d="m 104.09372,135.28939 h -3.93817 v -3.93802 h 3.93817 v 3.93802"
       style="fill:#5a5758;fill-opacity:1;fill-rule:nonzero;stroke:none;stroke-width:0.0352778"
       id="path66" />
    <path
       d="m 95.390022,130.51998 h 4.02318 v -3.95277 c 0,0 -4.02318,0.13959 -4.02318,3.95277"
       style="fill:#5a5758;fill-opacity:1;fill-rule:nonzero;stroke:none;stroke-width:0.0352778"
       id="path68" />
    <path
       d="m 104.13601,130.51998 h -4.02304 v -3.95277 c 0,0 4.02304,0.13959 4.02304,3.95277"
       style="fill:#5a5758;fill-opacity:1;fill-rule:nonzero;stroke:none;stroke-width:0.0352778"
       id="path70" />
    <path
       d="m 82.937532,134.9195 v 13.54847 H 116.61525 V 134.9195 l -3.90423,-3.92479 v 13.569 H 86.841792 v -13.61102"
       style="fill:#367bbe;fill-opacity:1;fill-rule:nonzero;stroke:none;stroke-width:0.0352778"
       id="path74" />
    <path
       d="m 99.810782,111.22628 -2.76091,2.76041 0.004,0.004 -9.56923,9.56924 v -2.73568 h -2.59401 v 0.0202 l -0.63747,1.37502 -0.64672,1.39485 0.1342,-0.0374 1.14999,-0.32026 v 5.10138 h -1.14999 c 0,-1.4e-4 0,-0.1476 0,-0.14774 0,-0.003 0,-0.89613 0,-0.90301 v -0.003 l -3.00521,3.00521 -1.48897,1.36867 -1.71552,1.57622 2.18447,0.70597 2.18433,0.70556 -1.4e-4,-9.9e-4 6.7e-4,8.5e-4 17.91423,-17.91423"
       style="fill:#367bbd;fill-opacity:1;fill-rule:nonzero;stroke:none;stroke-width:0.0352778"
       id="path76" />
    <path
       d="m 135.68994,134.85004 -2.1022,-2.11829 -1.80199,-1.81613 v 13.58194 h -12.92119 v 3.90413 h 12.92119 0.46884 3.43535 v -13.54833 h -0.0102 l 0.0102,-0.003"
       style="fill:#5a5758;fill-opacity:1;fill-rule:nonzero;stroke:none;stroke-width:0.0352778"
       id="path78" />
  </g>
</svg>
