<?xml version="1.0" encoding="UTF-8" standalone="no"?>
<!-- Created with Inkscape (http://www.inkscape.org/) -->

<svg
   version="1.1"
   id="svg18"
   width="4925.1455"
   height="3358.0537"
   viewBox="0 0 4925.1455 3358.0537"
   sodipodi:docname="workers_2.svg"
   inkscape:version="1.2.2 (b0a84865, 2022-12-01)"
   xmlns:inkscape="http://www.inkscape.org/namespaces/inkscape"
   xmlns:sodipodi="http://sodipodi.sourceforge.net/DTD/sodipodi-0.dtd"
   xmlns="http://www.w3.org/2000/svg"
   xmlns:svg="http://www.w3.org/2000/svg">
  <defs
     id="defs22">
    <clipPath
       clipPathUnits="userSpaceOnUse"
       id="clipPath3834">
      <rect
         style="opacity:0;fill:#000000;stroke-width:7.5"
         id="rect3836"
         width="53957.648"
         height="25200"
         x="42.352943"
         y="-29604.707"
         transform="scale(1,-1)" />
    </clipPath>
    <clipPath
       clipPathUnits="userSpaceOnUse"
       id="clipPath1680">
      <rect
         style="opacity:0;fill:#ff8080;stroke-width:7.5"
         id="rect1682"
         width="36938.594"
         height="25185.404"
         x="42.352943"
         y="-29604.707"
         transform="scale(1,-1)" />
    </clipPath>
  </defs>
  <sodipodi:namedview
     id="namedview20"
     pagecolor="#505050"
     bordercolor="#eeeeee"
     borderopacity="1"
     inkscape:showpageshadow="0"
     inkscape:pageopacity="0"
     inkscape:pagecheckerboard="0"
     inkscape:deskcolor="#505050"
     showgrid="false"
     inkscape:zoom="0.17420805"
     inkscape:cx="1796.7023"
     inkscape:cy="1922.9881"
     inkscape:window-width="1845"
     inkscape:window-height="1188"
     inkscape:window-x="0"
     inkscape:window-y="25"
     inkscape:window-maximized="0"
     inkscape:current-layer="g28">
    <inkscape:page
       x="0"
       y="0"
       id="page24"
       width="4925.1455"
       height="3358.0537" />
  </sodipodi:namedview>
  <g
     id="g26"
     inkscape:groupmode="layer"
     inkscape:label="Page 1"
     transform="matrix(1.3333333,0,0,-1.3333333,-5.647059,3947.2942)">
    <g
       id="g28"
       transform="scale(0.1)">
      <path
         d="M 0,0 H 54000 V 36000 H 0 V 0"
         style="fill:#fafafa;fill-opacity:1;fill-rule:evenodd;stroke:none"
         id="path30"
         clip-path="url(#clipPath1680)" />
      <path
         d="m 236.016,4533.2 c 0,0 5834.194,26.1 5343.184,-17.8 -488.86,-43.7 -271.97,2304.5 -275,2445.9 -3.03,141.5 -1902.24,-562.5 -1230.21,-980.9 675.31,-420.6 3020.96,-860.2 3822.91,-7.9 809.45,860.1 2773.1,6210.8 2216,5757.2 -553.86,-451.1 504.5,-5564.6 1961.3,-5563.4 1475.2,1.4 3014.5,297.2 2816.4,738.5 -197.9,441.1 -718.3,4082.6 -718.3,4082.6 0,0 -282.5,1788.2 -304,1851.4 -21.4,63.2 -1774.7,160.2 -1677.7,586.3 97.2,427 2584,5035.3 2901.2,4965.1 317.9,-70.5 3191.5,-383.8 3171.4,-670.1 -20.3,-286.1 -1465,-3025.7 -1508.7,-2875.8 -43.7,150 -842.2,1677 -922.7,1154 -80.6,-522 517.9,-1104.1 390,-1044 -127.8,60 -1489.3,1278.1 -1294.9,704.6 194.6,-573.5 832.1,-1109.8 768.5,-1090.6 -63.6,19.2 -1227.2,792.8 -1160.8,430.3 66.3,-362.3 784.6,-830.8 700.4,-833.7 -84.2,-2.8 -1198.4,493.6 -1048.5,113.8 149.9,-379.9 763.9,-1151.9 1204.7,-1138.8 442.5,13.3 2005.7,1554.4 1323.8,1270.3 -677.6,-282.5 -1449.1,-1359.8 -1363,-1592.9 86.1,-233.1 1420.1,-476 1734.3,287 315.6,766.5 504.6,1423.4 -7.8,1188.7 -510.1,-233.6 -1642.4,-1473.2 -2145.6,-1551.8 -500.8,-78 -3167.3,332.5 -3151.6,692.1 15.7,360.1 487.6,1926.3 386.2,1815.9 -101.2,-110.2 -4954.59,-4.1 -5227.43,-287.2 -272.04,-282.2 -1003.55,-1183.1 -698.76,-673.4 305.97,511.6 793.02,949.1 398.6,849.2 -392.93,-99.5 -1348.87,-387.3 -883.77,-140.2 467.25,248.2 1055.35,502.7 994.11,604.7 -61.28,101.9 76.69,4434.5 -805.09,5011.6 -876.5,573.6 -1607.23,943.9 -1858.67,-16 -885.72,-1034.8 -144.27,-8101.8 1059,-8312.1 765.95,-267.1 6216.81,480.7 6351.81,1033 135.3,553.6 82.6,1440.9 304.9,1640.1 222.8,199.7 777.7,221.3 982.1,378.6 204.8,157.5 -2189.5,19.2 -2114.2,424 75.4,405.7 1046.1,2624.7 1216.1,3791.9 170.7,1172.3 -303.9,2738.2 -9.4,2326.1 294.9,-412.6 1330,-1818 1164.6,-1935.7 -165.1,-117.7 -1403.5,-297.3 -844.8,-458.6 561,-161.9 1038.3,-70.3 957.4,-290.6 -80.7,-220.1 -2545.7,-3372.1 -2079,-3310.1 468.6,62.2 2686.6,1122.6 2542.6,944 -143.7,-178.2 -91.8,2689.4 492.2,2917.8 587.2,229.6 1337.6,-881.2 1041,-875.3 -295.8,5.7 -495.8,1080.8 -1321.9,1661.3 -821.7,577.5 -2219.1,1243 -2219.1,1243 0,0 -936,-621.1 -1238.3,-897.9 -301.2,-275.6 -229.6,-976.4 -173.8,-631.2 55.8,345.6 219.3,313 -337.84,833.9 -555.32,519.4 -917.59,1670.2 -981.62,1879.7 -64.06,209.4 -267.27,301.3 -464.36,51.6 -196.63,-249.1 -27.73,-3066.3 472.02,-2951.3 502.08,115.6 901.72,438.5 903.08,353.2 1.29,-85.2 -172.8,-607.4 51.71,-721.9 224.81,-114.8 811.11,154.4 772.51,2.4 -38.6,-151.8 241.2,-2609 104.3,-2997.6 -136.5,-387.8 -411,-1013.1 -411,-1013.1 0,0 -423.92,-17.6 -433.03,573 -9.15,591.4 -127.01,2982.7 92.31,3208.2 219.92,226 747.72,342.4 786.12,515.8 38.4,173.6 -297.9,838.3 -89.3,529.9 208.8,-308.5 869.7,-655.1 951.1,-585.9 129.4,110.2 60.6,780 63.7,929.8 9.6,466.1 79.2,460.8 181.9,918.8 22.8,101.6 353.2,640.4 388.1,738.9 53.1,149.3 132.9,287.7 212.3,425.2 146.8,254.1 293.9,508.8 441.2,763.9 59.1,102.4 143.9,219.9 254.3,210.3 -1.1,-404 -155.3,-805.3 -383.2,-1143.5 -355.2,-527.1 -1670,-1415 -2311.4,-1004.9 -576.24,368.7 -1017.74,1324.1 -1069.8,2050.4 -52.23,727.5 10.37,624.7 -33.3,815.1 -43.67,190.4 -546.69,1183.1 -62.6,1375.6 486.32,193.2 337.29,-727.8 704.91,-740.7 368.79,-13 667.39,641.1 664.29,858.1 -3.1,217.1 -1130.49,1550.3 -832.91,817.5 297.71,-733.3 2223.51,-2770 3708.51,-2918.2 1502.6,-150 1478.4,178.2 1261.1,689.7 -217.2,511.4 -217.2,511.4 -217.2,511.4 0,0 -269,-681.3 -1179.7,-314.2 -904.8,364.7 -3510.42,1971.8 -3604.79,2788.9 -94.51,818.1 1416.29,1885.5 2671.09,1702.1 1267.2,-185.3 1936.6,-1274.7 2114.6,-2078.4 177.9,-803.3 187,-1774.6 -236.3,-1919.1 -421.6,-144.3 -1115.3,-244.4 -1119.5,128 -4.2,372.5 115.4,2871.7 -982.8,3340.4 -1089.7,465 -2651.39,-1192 -2651.39,-1192 0,0 -701.5,520.3 -697.64,282 3.93,-238 735.57,-1406.9 773.67,-1230.1 38.11,176.9 -288.01,147.8 -405.59,-144.2 -117.33,-291.4 -153.77,-1804.3 -245.56,-2392.2 -91.51,-586.5 -837.83,-1577.5 -2014.14,-1961 -1163.57,-379.3 -2703.36,-823.3 -2253.96,-855.5 451.07,-32.3 3089.88,1103.3 3036.44,737.9 -53.38,-364.9 -1382.9,-1787.1 -1144.23,-1835.2 239.13,-48.4 1732.53,238.3 1635.03,83.7 -97.32,-154.4 -1448.76,-494.6 -1320.85,-972.3 127.88,-477.7 1655.18,-4282.1 1781.63,-3436.1 126.87,848.9 -218.03,6637.8 -939.19,6586.3 -716.75,-51.2 -2536.38,-1318.7 -2496.19,-4252.6 39.95,-2912.5 -954.72,-3932.2 -1031.75,-6012.1 -88.14,-2380.3 -529.54,-5932.6 -121.41,-5525 409.97,409.3 2782.21,5736.6 3279.24,4383.7 C 7927.7,9780.6 8773.99,7724.4 9565.48,7813 c 797.02,89.1 693.12,1664.9 469.32,583.2 -222.65,-1076.7 -732,-3951.1 -224.28,-3503.5 510.58,449.8 1336.98,1481.2 983.78,902.3 -351.6,-576.2 -1334.05,-1310 -623.3,-1068.3 715.4,243.4 4093.9,-188.6 4254.2,270.3 160.9,459.9 -364.3,3314.6 -557,2010.3 -191.7,-1297.9 -549.5,-2297.2 396.2,-2427.4 953,-131.3 2835.6,68.1 2835.6,68.1 0,0 1460.1,-81.5 1165.6,17.6 -293.8,99 86.4,2250.1 -158.8,2249.1 -244.9,-0.9 -925.3,-394 -193.5,-441.2 736.2,-47.7 2372.5,-587.4 2770.3,154.3 399.7,745.4 492.9,5444.2 596.2,4091.1 102.8,-1349.7 762.4,-3689.1 1932.3,-3784.1 0,0 4316.7,169.8 4693,988.4 378.4,822.8 -32,3129.2 -298,3175.3 -265.4,45.9 -2842.4,-718.7 -4597.1,-1102.7 -1728.6,-378.2 -4475,-221.3 -4721.4,-274.6 -245.9,-53.1 -395.5,339.3 -489,-500.3 -93,-837 -182.6,-2210.2 6.3,-1081.6 189.9,1133.6 -504.6,2502.5 132.7,2564.3 640.9,62.2 5739.7,-241.9 6983.6,187.5 1257.7,434.2 2745.4,1342.3 2161.1,1430.8 -581.7,88 -360.5,1949.6 -360.5,1949.6 0,0 -899.2,-235.7 -1576.5,1336.4 -676.1,1569.7 -1607.9,5763 71,5449.4 1700,-317.6 5063.7,-5776.4 5489.6,-6916.4 426.1,-1140.6 -917.4,-4965.4 -1346.4,-4712.8 -427.9,251.8 -1915.5,1256 -2235.1,993.6 -318.8,-261.7 -477,-264.3 -425.8,-519 51.5,-254.9 2329.8,-1508.4 2386.4,-1147.8 49.9,317.3 -405.3,-364.4 -882.1,-1092.8 -65.4,-100 -131.3,-200.8 -196.3,-300.1 -535.3,-817.6 -2791.7,-1980.3 -2477.9,-1376.8 315,606 1109.1,2335.2 427.3,2430.4 -678.2,94.6 -6728.1,1171.4 -6924.4,673.5 -195.8,-496.5 -432.3,-2663.3 57.7,-1973.6 492.9,693.7 536.8,2328.5 290.2,1779.9 -245.7,-546.6 -783.1,-1880.6 206,-2024.2 996.7,-144.7 5424.7,-735 5736.9,-432.6 313.3,303.6 -302.7,2676.7 374.5,2532.8 680.5,-144.6 2276.9,1362.5 2551.4,2449.7 276,1092.7 937.4,2984.1 718.3,2611.9 -218.5,-371.1 -385.1,-1051.2 -755.8,-387.4 -370.4,662.8 -2014.4,1434.3 -2746.1,3111.1 -730.4,1673.9 -988.1,3371.8 -356.5,3564.1 635.2,193.2 -944.1,776.9 -1309.9,962.5 -365,185 -364.6,600.5 -365,185 -0.5,-415.1 -0.8,-622.5 -1295.3,-2603.5 -1275,-1951.4 -1575,-3787.8 -1424.6,-3175.1 150.7,614.5 -256.3,1408.6 -866.1,2598 -608.5,1186.9 -309.3,1967.4 -862.3,1833.2 -550.5,-133.4 -1245.4,-628.4 -1442,-942.1 -196.2,-313 387.3,-7137.9 95.2,-7690 -290.9,-550 -1895.2,-681.1 -2045.8,2.4 -150.7,683.8 730.1,6018.4 1509.4,7059.8 786.3,1050.9 2547.3,1374.9 2546.5,1581.9 -0.6,207.1 -353.7,689.2 -0.6,207.1 353.5,-482.9 1565,-1216.7 1298.7,-1290.3 -265.7,-73.4 58.9,181.2 681,989.3 626.4,813.8 1016.7,1858.4 1106.9,1743.9 90.2,-114.5 -390.4,-2778 -897.7,-2655.9 -505.5,121.5 -208.5,137.6 -505.5,121.5 -296.3,-16 -856,-579 -1121.1,-445 -264.6,133.8 -412.4,509.8 -618.5,853 -206.1,342.9 -708.5,1820.7 -502.9,1537.8 205.6,-283.3 1130.3,-1343.5 2424.6,-588 1310.3,764.9 1296,2300.3 1010.8,3151.1 -106.8,318.4 240.6,-1129.5 391.8,-485.5 151.5,645.7 364,1115.8 182.1,1041.7 -181.6,-74 -1054.6,-1102.8 -2574.2,-1238.9 -1500.8,-134.6 -2983.7,-208.5 -2930.4,564.3 53.4,774.7 486.5,1253.8 486.5,1253.8 0,0 -256.3,-970.1 1379,-938.5 1657.2,32.1 3821.7,1222.8 3913.3,1686.1 91.8,464.2 277.9,2773 -1783.4,2921.2 -2028.9,145.8 -2877.6,-1315.9 -3109.1,-1935.2 -230.8,-617.2 -286.6,-1099.1 -256.1,-1365 30.5,-265.8 675.7,-752.4 1321.2,-643.3 649.1,109.6 766.3,599 1239.7,1479.9 476.3,886.1 1166.1,1887.6 1770.2,1575.7 606.5,-313.3 1581.2,-1270 1243.6,-2090.9 -335.9,-817.2 -609.2,-1110.8 -578.9,-987.2 30.4,123.6 546.3,-384.4 28.8,-1602.8 -513.8,-1209.9 -964.7,-6 -724.2,-351 240.6,-345.3 300.7,-672.6 571.9,-956.1 271.7,-284.1 693.3,-1673.4 600.8,-2789.2 -92.2,-1112 -394.9,-2526.7 55.8,-2805.7 452.3,-279.7 1210.8,-100.1 725,-119.6 -483.9,-19.5 -906,-244.7 -2519.4,-514.9 -1591.8,-266.5 -3771.7,203.7 -3885.7,-4.4 -113.8,-207.7 -226.4,-618.2 33.3,-840.7 260,-223.1 7308.9,-187.5 7036.5,280.7 -272,467.6 -423,760.4 -545.6,248.6 -122.5,-510.7 -2044.1,-3958.8 -701.2,-3459 1359.1,505.6 2094.3,1566.7 2090.2,613.2 -4.2,-951.4 1349.3,-5257.9 1221.1,-6202.1 -127.8,-941.1 667.3,-1120.4 -220.3,-1117 -881.5,3.5 -3073.8,-306.8 -3429.8,100.3 -355.3,406.3 -1505.1,1331.5 -1240.4,725.4 264.9,-606.4 529.9,-1213.4 323.8,-866.3 -206.1,346.7 2053.8,1652.4 3532,1450.5 1495,-204.2 4509.8,-201.5 4604.6,-171.5 94.7,29.9 645,1260.8 79.8,1617.4 -563.2,355.3 -3296.4,835.7 -3515,270.3 C 27124.1,7538 27049.6,5210.3 28028.8,5001 29015.2,4790.1 53764,4829.8 53764,4829.8"
         style="fill:none;stroke:#363435;stroke-width:120.016;stroke-linecap:round;stroke-linejoin:round;stroke-miterlimit:10;stroke-dasharray:none;stroke-opacity:1"
         id="path32" />
      <rect
         style="opacity:0;fill:#000000;stroke-width:7.5"
         id="rect1622"
         width="11107.409"
         height="7878.5112"
         x="-43.751003"
         y="-29561.654"
         transform="scale(1,-1)" />
      <rect
         style="opacity:0;fill:#ff8080;stroke-width:7.5"
         id="rect1676"
         width="37842.684"
         height="25142.352"
         x="85.404915"
         y="-29561.654"
         transform="scale(1,-1)" />
    </g>
  </g>
</svg>
